<?xml version="1.0" encoding="UTF-8"?>
<svg id="Layer_2" data-name="Layer 2" xmlns="http://www.w3.org/2000/svg" viewBox="0 0 512 512">
  <defs>
    <style>
      .cls-1 {
        fill: #fff;
      }

      .cls-2 {
        fill: #d52b1e;
      }

      .cls-3 {
        fill: none;
      }
    </style>
  </defs>
  <g id="Layer_1-2" data-name="Layer 1">
    <g>
      <path class="cls-2" d="m264.79,24.47c4.13.4,8.25.85,12.38,1.19,88.98,7.31,167.89,68.54,197.58,153.25,9.84,28.08,14.12,56.98,13.03,86.67-3.7,100.52-74.57,188.72-172.06,214.18-25.34,6.62-51.08,9.08-77.19,7.1-101.18-7.67-185.99-80.45-208.58-178.9C5.3,200.6,59.86,90.59,160.25,45.26c23.85-10.77,48.78-17.41,74.88-19.62,4.14-.35,8.26-.78,12.4-1.17,5.75,0,11.51,0,17.26,0Zm119.35,103.59c-75.78,58.35-135.42,128.93-179.96,212.61-26.69-19.14-52.05-39.54-76.52-61.07-.39.42-.68.6-.78.85-7.79,19.35-15.59,38.7-23.26,58.1-.32.81.34,2.47,1.09,3.14,3.47,3.11,7.09,6.04,10.72,8.97,35.7,28.89,72.59,56.13,111.74,80.23,1.06.65,2.16,1.23,3.25,1.85.35-.58.54-.81.65-1.08.39-.91.77-1.82,1.13-2.74,24.98-63.33,59.57-120.82,104.64-171.94,24.26-27.51,50.86-52.55,79.65-75.26,2.48-1.96,2.86-3.43,1.27-6.02-4.71-7.67-8.79-15.77-13.99-23.09-5.99-8.44-12.91-16.23-19.63-24.54Z"/>
      <path class="cls-1" d="m384.14,128.05c6.72,8.32,13.64,16.1,19.63,24.54,5.2,7.32,9.28,15.42,13.99,23.09,1.59,2.6,1.21,4.07-1.27,6.02-28.79,22.71-55.4,47.75-79.65,75.26-45.07,51.12-79.67,108.61-104.64,171.94-.36.92-.74,1.84-1.13,2.74-.11.27-.3.5-.65,1.08-1.1-.62-2.2-1.2-3.25-1.85-39.15-24.1-76.04-51.34-111.74-80.23-3.62-2.93-7.25-5.86-10.72-8.97-.74-.67-1.41-2.34-1.09-3.14,7.67-19.4,15.47-38.75,23.26-58.1.1-.25.39-.43.78-.85,24.47,21.53,49.83,41.93,76.52,61.07,44.54-83.68,104.18-154.27,179.96-212.61Z"/>
    </g>
    <rect class="cls-3" width="512" height="512"/>
  </g>
</svg>